<svg width="1514" height="1514" viewBox="0 0 1514 1514" fill="none" xmlns="http://www.w3.org/2000/svg">
<path opacity="0.3" d="M53.138 1.00017V1513M105.276 1.00017V1513M157.414 1.00017V1513M209.552 1.00017V1513M261.69 1.00017V1513M313.828 1.00017V1513M365.966 1.00017V1513M418.103 1.00017V1513M470.241 1.00017V1513M522.379 1.00017V1513M574.517 1.00017V1513M626.655 1.00017V1513M678.793 1.00017V1513M730.931 1.00017V1513M783.069 1.00017V1513M835.207 1.00017V1513M887.345 1.00017V1513M939.483 1.00017V1513M991.621 1.00017V1513M1043.76 1.00017V1513M1095.9 1.00017V1513M1148.03 1.00017V1513M1200.17 1.00017V1513M1252.31 1.00017V1513M1304.45 1.00017V1513M1356.59 1.00017V1513M1408.72 1.00017V1513M1460.86 1.00017V1513M1.00008 1460.86L1513 1460.86M1.00008 1408.72L1513 1408.72M1.00008 1356.59L1513 1356.59M1.00008 1304.45L1513 1304.45M1.00008 1252.31L1513 1252.31M1.00008 1200.17H1513M1.00008 1148.03H1513M1.00008 1095.9H1513M1.00008 1043.76H1513M1.00008 991.621L1513 991.621M1.00008 939.483L1513 939.483M1.00008 887.345L1513 887.345M1.00008 835.207L1513 835.207M1.00008 783.069L1513 783.069M1.00008 730.931L1513 730.931M1.00008 678.793L1513 678.793M1.00008 626.655L1513 626.655M1 574.517L1513 574.517M1 522.379L1513 522.379M1 470.241L1513 470.241M1 418.103L1513 418.103M1 365.966L1513 365.966M1 313.828L1513 313.828M1 261.69L1513 261.69M1 209.552L1513 209.552M1 157.414L1513 157.414M1 105.276L1513 105.276M1 53.1379L1513 53.1379M1 1.00018V1513H1513V1.00017L1 1.00018Z" stroke="#0E8388" stroke-width="0.651724" stroke-dasharray="13.69 13.69"/>
</svg>
